<svg width="497" height="119" viewBox="0 0 497 119" fill="none" xmlns="http://www.w3.org/2000/svg">
<path d="M-1.37685e-05 103.796V79.163L10.7491 77.9313V104.692C10.7491 107.566 11.8688 109.003 14.1082 109.003C16.3476 109.003 17.4673 107.566 17.4673 104.692V86.497C17.4673 83.5485 17.0195 80.4693 16.1237 77.2595C15.2279 74.0497 14.3135 71.4557 13.3804 69.4776C12.4847 67.4994 11.1037 64.7188 9.23753 61.1358C7.70727 58.0753 6.55025 55.6866 5.76645 53.9697C4.98266 52.2528 4.04958 49.9947 2.9672 47.1955C1.92214 44.3589 1.15701 41.6156 0.671808 38.9657C0.223927 36.2784 -1.37685e-05 33.5351 -1.37685e-05 30.7359V15.116C-1.37685e-05 5.03867 4.70274 1.13829e-05 14.1082 1.13829e-05C18.811 1.13829e-05 22.3381 1.23169 24.6894 3.69503C27.0408 6.15838 28.2165 9.96537 28.2165 15.116V37.3421L17.4673 38.6297V14.1643C17.4673 11.3277 16.3476 9.90938 14.1082 9.90938C11.8688 9.90938 10.7491 11.3277 10.7491 14.1643V30.7359C10.7491 32.9006 10.9357 35.028 11.309 37.1182C11.7195 39.1709 12.41 41.3917 13.3804 43.7804C14.3508 46.1691 15.1533 48.0539 15.7878 49.4349C16.4596 50.8158 17.5233 52.9246 18.9789 55.7612C20.4719 58.6724 21.6102 61.0238 22.394 62.8153C23.2152 64.6068 24.1482 66.9022 25.1933 69.7015C26.2383 72.4634 27.0035 75.2254 27.4887 77.9873C27.9739 80.7119 28.2165 83.5485 28.2165 86.497V103.796C28.2165 113.874 23.5137 118.912 14.1082 118.912C4.70274 118.912 -1.37685e-05 113.874 -1.37685e-05 103.796ZM34.2318 103.796V15.116C34.2318 9.96537 35.4075 6.15838 37.7589 3.69503C40.1103 1.23169 43.6373 1.13829e-05 48.3401 1.13829e-05C57.7456 1.13829e-05 62.4483 5.03867 62.4483 15.116V103.796C62.4483 108.91 61.2726 112.717 58.9213 115.217C56.6072 117.681 53.0802 118.912 48.3401 118.912C38.9346 118.912 34.2318 113.874 34.2318 103.796ZM44.981 14.1643V104.692C44.981 107.566 46.1007 109.003 48.3401 109.003C50.5795 109.003 51.6992 107.566 51.6992 104.692V14.1643C51.6992 11.3277 50.5795 9.90938 48.3401 9.90938C46.1007 9.90938 44.981 11.3277 44.981 14.1643ZM81.6644 118.241H68.8997V0.671834H81.6644C87.0016 0.671834 90.9019 1.92217 93.3652 4.42284C95.8659 6.88618 97.1162 10.8051 97.1162 16.1797V43.8924C97.1162 47.4381 96.3325 50.1627 94.7649 52.0662C93.1973 53.9697 90.8832 55.2573 87.8227 55.9292V57.6087C90.8832 58.2059 93.1973 59.4749 94.7649 61.4157C96.3325 63.3192 97.1162 66.0998 97.1162 69.7575V102.677C97.1162 108.051 95.8659 111.989 93.3652 114.49C90.9019 116.99 87.0016 118.241 81.6644 118.241ZM79.6489 10.5812V51.7303H82.1122C83.6052 51.7303 84.6875 51.3384 85.3594 50.5546C86.0312 49.7708 86.3671 48.4458 86.3671 46.5796V15.3399C86.3671 13.6604 86.0125 12.4474 85.3034 11.7009C84.6316 10.9544 83.5678 10.5812 82.1122 10.5812H79.6489ZM79.6489 61.8076V108.331H82.1122C83.6052 108.331 84.6875 107.958 85.3594 107.212C86.0312 106.465 86.3671 105.233 86.3671 103.517V66.9022C86.3671 65.0734 86.0312 63.7671 85.3594 62.9833C84.6875 62.1995 83.6052 61.8076 82.1122 61.8076H79.6489ZM103.448 103.796V15.116C103.448 9.96537 104.624 6.15838 106.975 3.69503C109.326 1.23169 112.853 1.13829e-05 117.556 1.13829e-05C126.962 1.13829e-05 131.664 5.03867 131.664 15.116V103.796C131.664 108.91 130.489 112.717 128.137 115.217C125.823 117.681 122.296 118.912 117.556 118.912C108.151 118.912 103.448 113.874 103.448 103.796ZM114.197 14.1643V104.692C114.197 107.566 115.317 109.003 117.556 109.003C119.795 109.003 120.915 107.566 120.915 104.692V14.1643C120.915 11.3277 119.795 9.90938 117.556 9.90938C115.317 9.90938 114.197 11.3277 114.197 14.1643ZM153.191 118.241H142.442V10.5812H134.772V0.671834H160.805V10.5812H153.191V118.241ZM175.376 118.241H164.851V0.671834H175.376V26.9848C175.376 32.2101 174.947 39.6935 174.088 49.4349H175.824L183.438 0.671834H194.019L185.453 47.4754L194.691 118.241H183.942L180.583 91.8716C179.276 80.7492 178.455 70.8399 178.119 62.1435H176.44L175.376 67.5181V118.241ZM207.912 118.241H197.163V0.671834H207.912V118.241ZM239.075 118.241H228.326V0.671834H241.091C246.428 0.671834 250.328 1.92217 252.792 4.42284C255.292 6.88618 256.543 10.8051 256.543 16.1797V51.0025C256.543 56.5637 255.311 60.6132 252.848 63.1512C250.384 65.6519 246.465 66.9022 241.091 66.9022H239.075V118.241ZM239.075 10.5812V56.9929H241.539C243.032 56.9929 244.114 56.6196 244.786 55.8732C245.458 55.0894 245.794 53.7831 245.794 51.9542V15.3399C245.794 13.6604 245.439 12.4474 244.73 11.7009C244.058 10.9544 242.994 10.5812 241.539 10.5812H239.075ZM262.218 103.796V15.116C262.218 9.96537 263.394 6.15838 265.745 3.69503C268.097 1.23169 271.624 1.13829e-05 276.326 1.13829e-05C285.732 1.13829e-05 290.435 5.03867 290.435 15.116V103.796C290.435 108.91 289.259 112.717 286.908 115.217C284.594 117.681 281.066 118.912 276.326 118.912C266.921 118.912 262.218 113.874 262.218 103.796ZM272.967 14.1643V104.692C272.967 107.566 274.087 109.003 276.326 109.003C278.566 109.003 279.686 107.566 279.686 104.692V14.1643C279.686 11.3277 278.566 9.90938 276.326 9.90938C274.087 9.90938 272.967 11.3277 272.967 14.1643ZM307.635 118.241H296.886V0.671834H309.651C314.988 0.671834 318.888 1.92217 321.352 4.42284C323.852 6.88618 325.103 10.8051 325.103 16.1797V47.5314C325.103 51.0771 324.319 53.8017 322.751 55.7052C321.184 57.6087 318.87 58.8964 315.809 59.5682V61.2477C318.87 61.8449 321.184 63.1139 322.751 65.0547C324.319 66.9955 325.103 69.8321 325.103 73.5645V104.3C325.103 110.347 325.868 114.993 327.398 118.241H316.313C315.007 115.479 314.353 110.832 314.353 104.3V70.5413C314.353 68.7124 314.018 67.4061 313.346 66.6223C312.674 65.8385 311.591 65.4466 310.099 65.4466H307.635V118.241ZM307.635 10.5812V55.3693H310.099C311.591 55.3693 312.674 54.9774 313.346 54.1936C314.018 53.4098 314.353 52.0848 314.353 50.2187V15.3399C314.353 13.6604 313.999 12.4474 313.29 11.7009C312.618 10.9544 311.554 10.5812 310.099 10.5812H307.635ZM346.898 118.241H336.149V10.5812H328.479V0.671834H354.512V10.5812H346.898V118.241ZM369.306 118.241H358.557V0.671834H371.322C376.659 0.671834 380.559 1.92217 383.023 4.42284C385.523 6.88618 386.774 10.8051 386.774 16.1797V47.5314C386.774 51.0771 385.99 53.8017 384.422 55.7052C382.855 57.6087 380.541 58.8964 377.48 59.5682V61.2477C380.541 61.8449 382.855 63.1139 384.422 65.0547C385.99 66.9955 386.774 69.8321 386.774 73.5645V104.3C386.774 110.347 387.539 114.993 389.069 118.241H377.984C376.678 115.479 376.025 110.832 376.025 104.3V70.5413C376.025 68.7124 375.689 67.4061 375.017 66.6223C374.345 65.8385 373.263 65.4466 371.77 65.4466H369.306V118.241ZM369.306 10.5812V55.3693H371.77C373.263 55.3693 374.345 54.9774 375.017 54.1936C375.689 53.4098 376.025 52.0848 376.025 50.2187V15.3399C376.025 13.6604 375.67 12.4474 374.961 11.7009C374.289 10.9544 373.225 10.5812 371.77 10.5812H369.306ZM401.171 118.241H390.31L397.644 0.671834H413.208L420.542 118.241H409.737L408.393 83.8657H402.459L401.171 118.241ZM403.522 56.7689L402.739 74.2363H408.113L407.385 56.7689C407.236 52.5887 407.049 46.8409 406.826 39.5255C406.602 32.2101 406.434 26.8915 406.322 23.5698H404.586C404.474 27.1901 404.306 32.602 404.082 39.8054C403.858 46.9715 403.672 52.626 403.522 56.7689ZM435.078 118.241H424.329V0.671834H435.078V118.241ZM457.447 118.241H446.697V10.5812H439.027V0.671834H465.061V10.5812H457.447V118.241ZM467.946 103.796V79.163L478.695 77.9313V104.692C478.695 107.566 479.815 109.003 482.054 109.003C484.294 109.003 485.413 107.566 485.413 104.692V86.497C485.413 83.5485 484.965 80.4693 484.07 77.2595C483.174 74.0497 482.26 71.4557 481.326 69.4776C480.431 67.4994 479.05 64.7188 477.184 61.1358C475.653 58.0753 474.496 55.6866 473.712 53.9697C472.929 52.2528 471.996 49.9947 470.913 47.1955C469.868 44.3589 469.103 41.6156 468.618 38.9657C468.17 36.2784 467.946 33.5351 467.946 30.7359V15.116C467.946 5.03867 472.649 1.13829e-05 482.054 1.13829e-05C486.757 1.13829e-05 490.284 1.23169 492.635 3.69503C494.987 6.15838 496.163 9.96537 496.163 15.116V37.3421L485.413 38.6297V14.1643C485.413 11.3277 484.294 9.90938 482.054 9.90938C479.815 9.90938 478.695 11.3277 478.695 14.1643V30.7359C478.695 32.9006 478.882 35.028 479.255 37.1182C479.666 39.1709 480.356 41.3917 481.326 43.7804C482.297 46.1691 483.099 48.0539 483.734 49.4349C484.406 50.8158 485.469 52.9246 486.925 55.7612C488.418 58.6724 489.556 61.0238 490.34 62.8153C491.161 64.6068 492.094 66.9022 493.139 69.7015C494.184 72.4634 494.949 75.2254 495.435 77.9873C495.92 80.7119 496.163 83.5485 496.163 86.497V103.796C496.163 113.874 491.46 118.912 482.054 118.912C472.649 118.912 467.946 113.874 467.946 103.796Z" fill="#FF0000"/>
</svg>
